<svg width="40" height="40" viewBox="0 0 40 40" fill="none" xmlns="http://www.w3.org/2000/svg">
<path d="M20.0001 12.7778C18.0846 12.7778 16.2476 13.5387 14.8932 14.8931C13.5387 16.2475 12.7778 18.0845 12.7778 20C12.7778 21.9154 13.5387 23.7524 14.8932 25.1069C16.2476 26.4613 18.0846 27.2222 20.0001 27.2222C21.9155 27.2222 23.7525 26.4613 25.1069 25.1069C26.4614 23.7524 27.2223 21.9154 27.2223 20C27.2223 18.0845 26.4614 16.2475 25.1069 14.8931C23.7525 13.5387 21.9155 12.7778 20.0001 12.7778Z" fill="#1DB954"/>
<path fill-rule="evenodd" clip-rule="evenodd" d="M5.55556 0C12.7359 0 25.0423 0 32.2222 0C40.5996 0 40 0 40 6.66667C40 14.4444 40.0006 26.6666 40.0006 35.5555C39.8746 39.8201 39.6674 39.7409 36.5033 39.8201C29.3235 39.9999 12.7364 39.9999 5.55616 39.9999C3.70873e-06 39.9999 2.50891e-06 39.9999 3.29246e-06 35.5555C4.66366e-06 27.7777 -3.07153e-05 14.0113 0.000102071 6.66673C0.000199283 1.2898 0 0 5.55556 0ZM31.1115 6.66682C30.5221 6.66682 29.9569 6.90094 29.5402 7.31769C29.1234 7.73444 28.8893 8.29967 28.8893 8.88904C28.8893 9.47841 29.1234 10.0436 29.5402 10.4604C29.9569 10.8771 30.5221 11.1113 31.1115 11.1113C31.7009 11.1113 32.2661 10.8771 32.6829 10.4604C33.0996 10.0436 33.3337 9.47841 33.3337 8.88904C33.3337 8.29967 33.0996 7.73444 32.6829 7.31769C32.2661 6.90094 31.7009 6.66682 31.1115 6.66682ZM9.44484 20.0002C9.44484 17.2006 10.5569 14.5158 12.5365 12.5362C14.516 10.5567 17.2009 9.4446 20.0004 9.4446C22.7999 9.4446 25.4847 10.5567 27.4643 12.5362C29.4438 14.5158 30.5559 17.2006 30.5559 20.0002C30.5559 22.7997 29.4438 25.4845 27.4643 27.4641C25.4847 29.4436 22.7999 30.5557 20.0004 30.5557C17.2009 30.5557 14.516 29.4436 12.5365 27.4641C10.5569 25.4845 9.44484 22.7997 9.44484 20.0002Z" fill="#1DB954"/>
</svg>
