<svg width="315" height="319" viewBox="0 0 315 319" fill="none" xmlns="http://www.w3.org/2000/svg">
<g clip-path="url(#clip0_3_135)">
<path d="M157.5 -0.11731C70.6951 -0.11731 -0.0405273 71.5444 -0.0405273 159.486C-0.0405273 247.427 70.6951 319.088 157.5 319.088C244.304 319.088 315.04 247.427 315.04 159.486C315.04 71.5444 244.304 -0.11731 157.5 -0.11731ZM157.5 312.864C74.0034 312.864 6.10354 244.075 6.10354 159.486C6.10354 74.896 74.0034 6.1072 157.5 6.1072C240.996 6.1072 308.896 74.896 308.896 159.486C308.896 244.075 240.996 312.864 157.5 312.864Z" fill="url(#paint0_linear_3_135)"/>
<path d="M96.2167 29.4092C115.437 19.9927 136.074 15.3642 157.5 15.3642C179.083 15.3642 199.721 20.1523 218.941 29.5688L219.256 29.7284L220.673 27.1748L220.358 27.0152C200.666 17.439 179.398 12.4913 157.5 12.4913C135.602 12.4913 114.491 17.439 94.7988 27.0152H94.3262L95.744 29.5688L96.2167 29.4092Z" fill="#1DB954"/>
<path d="M88.3395 30.2072C86.2915 31.3244 84.2435 32.6013 82.1955 33.7185L81.8804 33.8781L83.2982 36.4317L83.6133 36.2721C85.6613 34.9953 87.7094 33.8781 89.7574 32.7609L90.0725 32.6013L88.6546 30.0476L88.3395 30.2072Z" fill="url(#paint1_linear_3_135)"/>
<path d="M231.701 36.5914L233.119 34.0377L232.804 33.8781C230.756 32.6013 228.708 31.4841 226.66 30.3669L226.345 30.2073L224.927 32.7609L225.242 32.9205C227.29 34.0377 229.338 35.3146 231.386 36.4318L231.701 36.5914Z" fill="url(#paint2_linear_3_135)"/>
<path d="M299.286 147.994V148.313H302.279V147.835C298.813 103.146 275.655 62.9259 238.948 37.549L238.633 37.3894L237.215 39.943L237.53 40.1027C273.292 65.0007 295.82 104.263 299.286 147.994Z" fill="#1DB954"/>
<path d="M302.594 156.294V154.698H299.601V156.294C299.601 157.411 299.601 158.368 299.601 159.486C299.601 159.964 299.601 160.603 299.601 161.082C299.601 161.401 299.601 162.678 299.601 162.678H302.594C302.594 162.678 302.594 161.56 302.594 161.082C302.594 160.603 302.594 159.964 302.594 159.486C302.752 158.368 302.594 157.411 302.594 156.294Z" fill="url(#paint3_linear_3_135)"/>
<path d="M219.728 289.083C200.193 298.659 179.24 303.607 157.5 303.607C135.759 303.607 114.964 298.819 95.4287 289.083L95.1137 288.923L93.6958 291.477L94.0109 291.637C113.861 301.532 135.286 306.48 157.5 306.48C179.713 306.48 201.138 301.532 221.146 291.637L221.461 291.477L220.043 288.923L219.728 289.083Z" fill="#1DB954"/>
<path d="M83.1407 282.22L82.8256 282.06L81.4077 284.614L81.7228 284.774C83.7708 286.05 85.8188 287.168 87.8669 288.445L88.1819 288.604L89.5998 286.05L89.2847 285.891C87.0792 284.774 85.0311 283.497 83.1407 282.22Z" fill="url(#paint4_linear_3_135)"/>
<path d="M232.016 282.22C229.968 283.497 227.92 284.614 225.872 285.891L225.557 286.05L226.975 288.604L227.29 288.445C229.338 287.327 231.386 286.05 233.434 284.774L233.749 284.614L232.331 282.06L232.016 282.22Z" fill="url(#paint5_linear_3_135)"/>
<path d="M15.2405 161.082C15.2405 160.603 15.2405 159.964 15.2405 159.486C15.2405 158.368 15.2405 157.411 15.2405 156.294V154.698H12.4048V156.294C12.4048 157.411 12.4048 158.368 12.4048 159.486C12.4048 160.124 12.4048 160.603 12.4048 161.241V162.678H15.3981L15.2405 161.082Z" fill="url(#paint6_linear_3_135)"/>
<path d="M299.443 169.381C296.45 213.431 274.079 253.172 238.003 278.23L237.688 278.39L239.105 280.943L239.42 280.784C276.442 255.088 299.286 214.548 302.279 169.381V168.902H299.286L299.443 169.381Z" fill="#1DB954"/>
<path d="M15.5559 169.381V169.062H12.7202V169.54C15.7135 214.708 38.7144 255.247 75.7363 280.943L76.0514 281.262L77.4693 278.709L77.1542 278.549C41.0775 253.172 18.5492 213.591 15.5559 169.381Z" fill="#1DB954"/>
<path d="M76.3665 37.549C39.3445 62.9258 16.1861 103.146 12.7202 147.994V148.473H15.7135V148.154C19.1794 104.423 41.7076 65.0006 77.7843 40.2622L78.0994 40.1026L76.6816 37.549H76.3665Z" fill="#1DB954"/>
<path d="M82.2983 214.434L85.6387 216.83C100.101 216.83 111.765 204.867 111.765 190.215V105.138H102.449V190.215C102.449 202.745 94.6666 214.434 82.2983 214.434ZM171.982 105.138L197.693 152.881V203.733H207.985V152.881L233.697 105.138H229.941L206.035 149.222L182.255 105.138H171.982Z" fill="url(#paint7_linear_3_135)"/>
</g>
<defs>
<linearGradient id="paint0_linear_3_135" x1="-0.0405273" y1="-0.11731" x2="-0.0405273" y2="320.684" gradientUnits="userSpaceOnUse">
<stop stop-color="#1DB954"/>
<stop offset="1" stop-color="#1DB954"/>
</linearGradient>
<linearGradient id="paint1_linear_3_135" x1="81.8804" y1="30.0476" x2="81.8804" y2="38.0277" gradientUnits="userSpaceOnUse">
<stop stop-color="#1DB954"/>
<stop offset="1" stop-color="#1DB954"/>
</linearGradient>
<linearGradient id="paint2_linear_3_135" x1="224.927" y1="30.2073" x2="224.927" y2="38.1874" gradientUnits="userSpaceOnUse">
<stop stop-color="#1DB954"/>
<stop offset="1" stop-color="#1DB954"/>
</linearGradient>
<linearGradient id="paint3_linear_3_135" x1="299.601" y1="154.698" x2="299.601" y2="164.274" gradientUnits="userSpaceOnUse">
<stop stop-color="#1DB954"/>
<stop offset="1" stop-color="#1DB954"/>
</linearGradient>
<linearGradient id="paint4_linear_3_135" x1="81.4077" y1="282.06" x2="81.4077" y2="290.041" gradientUnits="userSpaceOnUse">
<stop stop-color="#1DB954"/>
<stop offset="1" stop-color="#1DB954"/>
</linearGradient>
<linearGradient id="paint5_linear_3_135" x1="225.557" y1="282.06" x2="225.557" y2="290.041" gradientUnits="userSpaceOnUse">
<stop stop-color="#1DB954"/>
<stop offset="1" stop-color="#1DB954"/>
</linearGradient>
<linearGradient id="paint6_linear_3_135" x1="12.4048" y1="154.698" x2="12.4048" y2="164.274" gradientUnits="userSpaceOnUse">
<stop stop-color="#1DB954"/>
<stop offset="1" stop-color="#1DB954"/>
</linearGradient>
<linearGradient id="paint7_linear_3_135" x1="82.2983" y1="105.138" x2="82.2983" y2="264.28" gradientUnits="userSpaceOnUse">
<stop stop-color="#1DB954"/>
<stop offset="1" stop-color="#1DB954"/>
</linearGradient>
<clipPath id="clip0_3_135">
<rect width="315" height="319" fill="white"/>
</clipPath>
</defs>
</svg>
